<svg width="525" height="525" viewBox="0 0 525 525" fill="none" xmlns="http://www.w3.org/2000/svg">
<path fill-rule="evenodd" clip-rule="evenodd" d="M14.6447 85.3553L85.3553 14.6447C104.882 -4.88154 136.54 -4.88155 156.066 14.6447L226.777 85.3553C246.303 104.882 277.961 104.882 297.487 85.3553L368.198 14.6447C387.724 -4.88156 419.383 -4.88155 438.909 14.6447L509.619 85.3553C529.146 104.882 529.146 136.54 509.619 156.066L438.909 226.777C419.383 246.303 419.383 277.961 438.909 297.487L509.619 368.198C529.146 387.724 529.146 419.383 509.619 438.909L438.909 509.619C419.383 529.146 387.724 529.146 368.198 509.619L297.487 438.909C277.961 419.383 246.303 419.383 226.777 438.909L156.066 509.619C136.54 529.146 104.882 529.146 85.3553 509.619L14.6447 438.909C-4.88156 419.383 -4.88155 387.724 14.6447 368.198L85.3544 297.193C104.881 277.667 104.881 246.009 85.3544 226.482L14.6447 156.066C-4.88155 136.54 -4.88156 104.882 14.6447 85.3553ZM191.421 332.843C230.474 371.895 293.79 371.895 332.843 332.843C371.895 293.79 371.895 230.474 332.843 191.421C293.79 152.369 230.474 152.369 191.421 191.421C152.369 230.474 152.369 293.79 191.421 332.843Z" fill="url(#paint0_linear_229_72)"/>
<path d="M169.293 433.525H139.293C111.679 433.525 89.293 411.139 89.293 383.525V353.525M352.76 433.912H382.76C410.374 433.912 432.76 411.526 432.76 383.912V353.912M353.148 90.7998H383.148C410.763 90.7998 433.148 113.186 433.148 140.8V170.8M169.682 90.4126L139.682 90.4126C112.067 90.4126 89.6816 112.798 89.6816 140.413V170.413" stroke="white" stroke-opacity="0.5" stroke-width="20" stroke-linecap="round" stroke-linejoin="round"/>
<defs>
<linearGradient id="paint0_linear_229_72" x1="262.132" y1="0" x2="262.132" y2="524.264" gradientUnits="userSpaceOnUse">
<stop stop-color="#1D2E58"/>
<stop offset="1"/>
</linearGradient>
</defs>
</svg>
