<svg width="620" height="620" viewBox="0 0 620 620" fill="none" xmlns="http://www.w3.org/2000/svg">
<rect x="210" y="210" width="200" height="200" rx="100" stroke="black" stroke-width="20"/>
<rect x="10" y="10" width="600" height="600" rx="300" stroke="black" stroke-width="20"/>
<path d="M210 510C210 565.228 254.772 610 310 610C365.228 610 410 565.228 410 510V460C410 432.386 432.386 410 460 410H510C565.228 410 610 365.228 610 310C610 254.772 565.228 210 510 210M110 410C54.7715 410 10 365.228 10 310C10 254.772 54.7715 210 110 210H160C187.614 210 210 187.614 210 160V110C210 54.7715 254.772 10 310 10C365.228 10 410 54.7715 410 110" stroke="black" stroke-width="20" stroke-linecap="round"/>
<path d="M337.853 496L316.64 517.213C312.734 521.118 306.403 521.118 302.497 517.213L281.284 496M281.284 124L302.497 102.787C306.403 98.8815 312.734 98.8815 316.64 102.787L337.853 124M124 337.853L102.787 316.64C98.8816 312.734 98.8816 306.403 102.787 302.497L124 281.284M496 281.284L517.213 302.497C521.118 306.403 521.118 312.734 517.213 316.64L496 337.853" stroke="black" stroke-width="20" stroke-linecap="round"/>
</svg>
